# xmcd CD database file
#
# Track frame offsets:
#	150
#	11012
#	19337
#	33775
#	42475
#	55225
#	64975
#	77050
#	88000
#	102362
#	112525
#	124712
#
# Disc length: 1787 seconds
#
# Revision: 2
# Processed by: cddbd v1.4PL0 Copyright (c) Steve Scherf et al.
# Submitted via: jetAudio 5
#
DISCID=9206f90c
DTITLE=Agents - Agents
DYEAR=1900
DGENRE=
TTITLE0=huuliharppupoika
TTITLE1=Agents boogie
TTITLE2=Green onions
TTITLE3=agents hyökkää
TTITLE4=hully gully
TTITLE5=sydänsuruja
TTITLE6=snake shake
TTITLE7=jätkän twist
TTITLE8=surujen kitara
TTITLE9=aaveratsastajat
TTITLE10=tunnista toiseen
TTITLE11=neljäs mies
EXTD=
EXTT0=
EXTT1=
EXTT2=
EXTT3=
EXTT4=
EXTT5=
EXTT6=
EXTT7=
EXTT8=
EXTT9=
EXTT10=
EXTT11=
PLAYORDER=
